<?xml version="1.0" encoding="UTF-8"?>
<!DOCTYPE svg PUBLIC "-//W3C//DTD SVG 1.1//EN" "http://www.w3.org/Graphics/SVG/1.1/DTD/svg11.dtd">
<svg xmlns="http://www.w3.org/2000/svg" version="1.1" width="128px" height="128px" style="shape-rendering:geometricPrecision; text-rendering:geometricPrecision; image-rendering:optimizeQuality; fill-rule:evenodd; clip-rule:evenodd" xmlns:xlink="http://www.w3.org/1999/xlink">
<g><path style="opacity:1" fill="#1e1e1f" d="M 11.5,-0.5 C 14.8333,-0.5 18.1667,-0.5 21.5,-0.5C 28.9074,3.60737 33.4074,9.94071 35,18.5C 36.1577,22.7974 37.1577,27.1307 38,31.5C 49.6541,26.2441 56.8208,29.9107 59.5,42.5C 61.6353,44.369 64.3019,45.0356 67.5,44.5C 76.5424,45.7061 82.3757,50.7061 85,59.5C 85.7077,72.8749 81.5411,84.5416 72.5,94.5C 78.6513,103.765 77.318,111.932 68.5,119C 61.5465,123.061 54.2131,125.894 46.5,127.5C 39.5,127.5 32.5,127.5 25.5,127.5C 20.2332,125.397 16.8999,121.563 15.5,116C 15.9508,113.432 16.9508,111.098 18.5,109C 9.51202,101.538 3.17869,92.3715 -0.5,81.5C -0.5,76.5 -0.5,71.5 -0.5,66.5C 1.49009,61.1871 4.49009,56.5204 8.5,52.5C 12.2736,51.0618 14.6069,48.3951 15.5,44.5C 11.8637,33.0907 8.53035,21.5907 5.5,10C 5.32446,5.17695 7.32446,1.67695 11.5,-0.5 Z"/></g>
<g><path style="opacity:1" fill="#f5f5f5" d="M 14.5,4.5 C 20.3468,3.83992 24.5134,6.17325 27,11.5C 28,13.8333 29,16.1667 30,18.5C 32.8842,33.0369 36.5509,47.3702 41,61.5C 41.4966,59.1902 41.6633,56.8568 41.5,54.5C 40.6381,49.1871 40.4715,43.8538 41,38.5C 43.1962,35.8748 46.0295,34.8748 49.5,35.5C 52.4521,36.3589 54.2854,38.3589 55,41.5C 55.0679,50.3868 58.2345,57.8868 64.5,64C 65.5,64.6667 66.5,64.6667 67.5,64C 64.4769,61.8225 62.4769,58.9892 61.5,55.5C 61.0193,51.6509 62.686,49.6509 66.5,49.5C 79.9803,53.464 84.147,62.1307 79,75.5C 74.1692,88.9948 65.6692,99.4948 53.5,107C 55.5527,107.325 57.5527,106.991 59.5,106C 62.4028,103.428 65.5694,101.261 69,99.5C 69.9454,99.9054 70.6121,100.572 71,101.5C 71.713,109.492 68.213,114.992 60.5,118C 54.7984,120.707 48.7984,122.207 42.5,122.5C 36.9425,122.574 31.6091,121.574 26.5,119.5C 23.7394,117.013 24.0728,115.013 27.5,113.5C 29.7819,114.39 32.1152,114.556 34.5,114C 29.7768,111.978 25.4434,109.478 21.5,106.5C 19.6377,102.458 17.1377,98.7916 14,95.5C 8.43536,85.3695 7.10202,74.7028 10,63.5C 11.7615,58.9637 14.2615,54.9637 17.5,51.5C 18.8092,56.0737 19.8092,60.7404 20.5,65.5C 20.3691,66.3764 20.7025,67.0431 21.5,67.5C 22.6642,60.8582 22.8309,54.1915 22,47.5C 20.1201,35.6476 17.4534,23.9809 14,12.5C 13.3985,9.77946 13.5651,7.11279 14.5,4.5 Z"/></g>
<g><path style="opacity:1" fill="#c3c5d0" d="M 14.5,4.5 C 13.5651,7.11279 13.3985,9.77946 14,12.5C 17.4534,23.9809 20.1201,35.6476 22,47.5C 22.8309,54.1915 22.6642,60.8582 21.5,67.5C 20.7025,67.0431 20.3691,66.3764 20.5,65.5C 21.1384,57.2902 20.6384,48.9568 19,40.5C 16.063,30.5232 13.2297,20.5232 10.5,10.5C 10.38,7.37753 11.7133,5.37753 14.5,4.5 Z"/></g>
<g><path style="opacity:1" fill="#babbc7" d="M 49.5,35.5 C 46.0295,34.8748 43.1962,35.8748 41,38.5C 40.4715,43.8538 40.6381,49.1871 41.5,54.5C 39.0726,48.8316 38.2392,42.8316 39,36.5C 40.6477,34.9716 42.6477,34.3049 45,34.5C 46.7067,34.5085 48.2067,34.8418 49.5,35.5 Z"/></g>
<g><path style="opacity:1" fill="#c3c3c3" d="M 59.5,42.5 C 62.2804,43.0784 64.9471,43.7451 67.5,44.5C 64.3019,45.0356 61.6353,44.369 59.5,42.5 Z"/></g>
<g><path style="opacity:1" fill="#515151" d="M 15.5,44.5 C 14.6069,48.3951 12.2736,51.0618 8.5,52.5C 10.8623,49.808 13.1956,47.1413 15.5,44.5 Z"/></g>
<g><path style="opacity:1" fill="#a9aab3" d="M 66.5,49.5 C 62.686,49.6509 61.0193,51.6509 61.5,55.5C 60.5318,53.3926 60.1984,51.0593 60.5,48.5C 62.7354,48.2053 64.7354,48.5386 66.5,49.5 Z"/></g>
<g><path style="opacity:1" fill="#c1c2ce" d="M 17.5,51.5 C 14.2615,54.9637 11.7615,58.9637 10,63.5C 7.10202,74.7028 8.43536,85.3695 14,95.5C 17.1377,98.7916 19.6377,102.458 21.5,106.5C 9.13384,96.4341 3.3005,83.4341 4,67.5C 6.23194,60.8645 10.0653,55.3645 15.5,51C 16.4368,50.3083 17.1034,50.475 17.5,51.5 Z"/></g>
<g><path style="opacity:1" fill="#161617" d="M 33.5,72.5 C 35.6348,72.147 36.9681,72.9803 37.5,75C 35.8025,82.0488 36.8025,88.7155 40.5,95C 40.1667,95.5 39.8333,96 39.5,96.5C 33.1182,89.6397 31.1182,81.6397 33.5,72.5 Z"/></g>
<g><path style="opacity:1" fill="#111111" d="M 44.5,72.5 C 45.5,72.5 46.5,72.5 47.5,72.5C 45.9637,80.0583 45.1303,87.725 45,95.5C 40.6865,87.791 40.5198,80.1244 44.5,72.5 Z"/></g>
<g><path style="opacity:1" fill="#111111" d="M 23.5,77.5 C 24.5,77.5 25.5,77.5 26.5,77.5C 26.3359,80.1873 26.5026,82.854 27,85.5C 28.9809,90.1279 31.4809,94.4613 34.5,98.5C 34.1667,98.8333 33.8333,99.1667 33.5,99.5C 24.7087,94.5876 21.3753,87.2543 23.5,77.5 Z"/></g>
<g><path style="opacity:1" fill="#c0c1cd" d="M 27.5,113.5 C 24.0728,115.013 23.7394,117.013 26.5,119.5C 31.6091,121.574 36.9425,122.574 42.5,122.5C 40.0221,123.164 37.3555,123.497 34.5,123.5C 25.4438,124.919 20.9438,121.253 21,112.5C 23.4556,111.158 25.6222,111.491 27.5,113.5 Z"/></g>
</svg>
