<svg xmlns="http://www.w3.org/2000/svg" version="1.0" width="900.000000pt" height="147.000000pt" viewBox="0 0 900.000000 147.000000" preserveAspectRatio="xMidYMid meet">
<metadata fill="#e0def4">
Created by potrace 1.10, written by Peter Selinger 2001-2011
</metadata>
<g transform="translate(0.000000,147.000000) scale(0.100000,-0.100000)" fill="#e0def4" stroke="none">
<path d="M467 950 c5 -26 3 -30 -16 -30 -29 0 -26 -24 8 -62 31 -35 29 -35 46 17 3 11 12 14 28 10 17 -5 26 -2 30 10 9 21 -9 47 -45 68 -45 26 -59 22 -51 -13z" fill="#e0def4"/>
<path d="M6704 946 c-4 -12 1 -23 16 -33 22 -15 22 -17 19 -237 -2 -121 0 -227 4 -233 10 -16 42 -17 68 -2 19 10 21 19 19 147 -1 75 -1 143 -1 150 2 25 31 10 95 -52 37 -35 76 -66 86 -69 27 -7 60 20 60 48 0 47 -127 112 -201 102 l-39 -5 0 55 c0 30 4 63 10 73 17 32 -18 62 -78 68 -42 4 -53 1 -58 -12z" fill="#e0def4"/>
<path d="M8500 950 c-13 -8 -11 -14 13 -35 l27 -26 0 -154 c0 -85 -5 -174 -12 -198 -20 -76 24 -128 83 -96 22 11 22 14 15 155 -4 95 -3 145 4 149 14 9 54 -18 111 -75 57 -57 75 -65 105 -45 70 45 -33 135 -159 141 -27 1 -53 6 -58 11 -5 5 -5 34 1 71 7 41 7 69 1 81 -15 27 -100 41 -131 21z" fill="#e0def4"/>
<path d="M267 944 c-3 -4 2 -18 13 -33 10 -14 21 -45 25 -68 l7 -42 -42 -11 c-63 -17 -74 -9 -67 49 4 31 1 55 -6 66 -15 19 -86 30 -107 16 -12 -8 -12 -13 4 -30 11 -12 18 -37 19 -68 l2 -48 -38 -3 c-26 -2 -45 2 -58 14 -18 16 -19 16 -19 -17 0 -19 5 -40 12 -47 15 -15 60 -16 75 -1 23 23 34 -1 28 -56 -6 -43 -4 -58 11 -79 23 -30 35 -32 57 -8 13 14 17 38 17 89 l0 71 46 7 c26 3 51 2 56 -3 14 -14 -12 -141 -38 -182 -25 -41 -65 -77 -100 -90 -36 -14 -31 -40 9 -40 45 0 150 69 182 120 20 32 27 57 30 113 2 40 4 75 4 79 1 4 37 5 81 1 69 -5 80 -4 80 10 0 42 -10 47 -86 47 -86 0 -96 9 -69 66 l17 37 -28 23 c-28 22 -101 34 -117 18z" fill="#e0def4"/>
<path d="M7490 938 c0 -7 7 -22 15 -32 11 -15 15 -50 15 -138 0 -99 -3 -125 -20 -158 -25 -50 -82 -105 -131 -127 -23 -11 -38 -24 -36 -33 3 -20 55 -25 75 -7 10 9 30 19 46 23 16 4 57 35 92 69 l62 63 6 98 c4 55 9 126 12 159 l5 60 -43 18 c-51 20 -98 22 -98 5z" fill="#e0def4"/>
<path d="M2177 868 c4 -49 2 -73 -9 -94 -9 -16 -25 -50 -37 -75 -24 -53 -134 -171 -177 -190 -5 -3 -26 -15 -47 -28 -30 -19 -35 -26 -26 -37 13 -16 45 -19 54 -5 3 6 31 22 62 36 31 15 63 32 71 38 47 38 136 125 143 142 5 11 20 38 34 60 13 22 24 47 25 56 0 9 9 28 20 42 11 14 20 34 20 44 0 26 -54 64 -101 70 l-38 6 6 -65z" fill="#e0def4"/>
<path d="M3118 924 c-14 -14 -8 -34 10 -34 9 0 46 -19 80 -41 58 -38 66 -40 88 -29 31 17 31 50 -1 80 -20 18 -39 24 -97 28 -40 2 -76 1 -80 -4z" fill="#e0def4"/>
<path d="M4390 920 c-12 -7 -11 -13 10 -35 23 -25 25 -35 28 -151 2 -73 -1 -138 -7 -156 -9 -25 -8 -37 6 -61 31 -52 48 -56 86 -19 18 17 37 32 43 32 11 0 143 128 164 160 8 12 23 33 33 46 35 46 -7 61 -45 16 -30 -35 -144 -124 -180 -140 -19 -8 -29 -8 -34 -1 -10 17 7 198 22 235 13 31 13 34 -14 52 -33 23 -92 35 -112 22z" fill="#e0def4"/>
<path d="M5507 916 c-5 -12 1 -19 19 -26 14 -6 28 -10 32 -10 4 0 27 -16 51 -35 49 -39 71 -43 94 -17 23 25 22 34 -13 67 -25 24 -39 29 -103 33 -62 4 -75 2 -80 -12z" fill="#e0def4"/>
<path d="M7270 921 c-12 -8 -12 -13 -2 -23 8 -8 12 -50 12 -135 0 -118 1 -123 24 -138 23 -16 54 -11 68 9 4 6 8 55 8 109 0 59 5 105 12 117 11 17 10 23 -7 39 -23 23 -93 36 -115 22z" fill="#e0def4"/>
<path d="M8095 908 c-19 -12 -188 -17 -230 -8 -31 7 -32 -41 -2 -76 24 -28 24 -28 60 -11 19 9 40 17 47 17 7 0 34 8 61 17 67 24 79 11 48 -54 -29 -59 -94 -147 -141 -189 -46 -42 -135 -104 -149 -104 -6 0 -9 -8 -7 -17 4 -23 41 -28 61 -9 9 9 22 16 29 16 20 0 129 74 189 128 35 31 54 42 57 33 2 -7 16 -27 31 -45 27 -33 47 -61 58 -86 4 -8 16 -22 27 -32 19 -14 24 -15 50 -1 26 13 28 18 23 55 -6 41 -20 56 -85 90 -19 9 -47 20 -64 23 -16 4 -31 12 -34 19 -6 14 52 108 89 146 22 23 23 27 9 48 -8 12 -20 22 -27 22 -7 0 -18 7 -25 15 -15 18 -47 19 -75 3z" fill="#e0def4"/>
<path d="M1824 895 c-3 -7 8 -32 25 -56 20 -27 31 -54 31 -76 0 -73 60 -109 101 -60 36 43 15 98 -68 170 -30 26 -83 39 -89 22z" fill="#e0def4"/>
<path d="M4254 877 c-3 -9 1 -26 10 -39 22 -30 22 -157 0 -206 -29 -69 -49 -107 -64 -123 -21 -23 -42 -60 -37 -66 9 -8 66 26 100 61 61 61 84 127 102 297 l6 56 -42 12 c-22 7 -47 15 -55 18 -8 3 -17 -2 -20 -10z" fill="#e0def4"/>
<path d="M3730 860 c-12 -8 -11 -13 11 -37 32 -34 42 -68 23 -84 -7 -6 -38 -9 -71 -7 -57 3 -58 3 -55 -22 8 -52 63 -79 92 -45 7 8 25 15 41 15 l29 0 0 -91 c0 -68 4 -98 17 -120 22 -37 61 -36 82 2 13 23 13 33 -3 85 -10 33 -22 63 -27 69 -5 5 -9 25 -9 45 0 33 4 39 40 55 59 26 72 9 35 -45 -15 -22 -33 -40 -39 -40 -6 0 -3 -5 6 -10 12 -8 36 -1 91 25 89 42 99 62 53 100 -28 24 -36 26 -86 20 -30 -4 -63 -11 -73 -16 -27 -15 -37 -2 -37 46 0 24 -3 46 -7 48 -19 11 -99 16 -113 7z" fill="#e0def4"/>
<path d="M6170 828 c0 -7 7 -22 15 -32 8 -11 15 -26 15 -34 0 -24 32 -82 45 -82 19 0 45 34 45 59 0 29 -70 101 -99 101 -11 0 -21 -6 -21 -12z" fill="#e0def4"/>
<path d="M6352 833 c-9 -3 -11 -16 -6 -40 20 -105 -87 -241 -228 -292 -17 -6 -28 -18 -28 -29 0 -46 182 20 251 90 40 41 50 57 79 118 12 25 26 53 31 63 11 20 3 57 -11 57 -5 0 -15 6 -22 14 -17 17 -49 26 -66 19z" fill="#e0def4"/>
<path d="M3033 804 c-25 -11 -13 -31 25 -42 21 -7 59 -28 84 -48 40 -30 50 -34 68 -24 29 16 24 67 -10 92 -25 18 -141 34 -167 22z" fill="#e0def4"/>
<path d="M5421 796 c-11 -13 -9 -17 15 -27 49 -19 88 -42 114 -66 30 -28 42 -29 63 -5 45 50 -5 98 -110 108 -56 5 -71 4 -82 -10z" fill="#e0def4"/>
<path d="M6055 799 c-4 -5 0 -18 9 -28 9 -10 16 -23 16 -29 0 -6 7 -30 16 -52 12 -31 22 -40 40 -40 34 0 48 32 34 75 -19 58 -95 107 -115 74z" fill="#e0def4"/>
<path d="M3475 750 c-83 -75 -144 -112 -288 -174 -44 -19 -86 -20 -122 -4 -32 15 -37 9 -25 -32 15 -52 100 -130 100 -92 0 5 36 25 81 46 138 65 191 105 287 220 29 34 44 73 32 81 -5 3 -34 -17 -65 -45z" fill="#e0def4"/>
<path d="M5860 744 c-30 -31 -64 -60 -75 -65 -11 -5 -33 -18 -50 -29 -16 -11 -37 -23 -45 -26 -29 -12 -85 -37 -112 -51 -34 -17 -86 -17 -122 2 -35 18 -36 18 -36 0 0 -22 56 -108 80 -123 18 -11 25 -11 38 0 10 8 33 21 52 30 19 9 53 24 75 35 43 20 147 94 180 128 82 85 111 141 80 152 -6 2 -35 -22 -65 -53z" fill="#e0def4"/>
<path d="M613 765 c-8 -22 3 -84 19 -102 9 -12 25 -13 76 -8 35 4 129 7 209 7 80 -1 156 3 168 8 31 12 42 58 18 76 -15 12 -54 13 -215 8 -173 -6 -200 -5 -222 10 -32 20 -45 20 -53 1z" fill="#e0def4"/>
<path d="M2404 765 c-8 -19 3 -63 23 -94 14 -22 19 -23 74 -17 33 4 128 7 212 7 171 0 201 9 195 57 -5 40 -33 48 -134 41 -163 -13 -288 -10 -310 6 -25 19 -53 19 -60 0z" fill="#e0def4"/>
<path d="M1423 751 c-16 -13 -23 -30 -23 -55 0 -29 5 -38 30 -51 74 -38 136 47 77 103 -28 27 -55 27 -84 3z" fill="#e0def4"/>
<path d="M5012 747 c-56 -59 5 -140 78 -102 25 13 30 22 30 51 0 65 -66 96 -108 51z" fill="#e0def4"/>
</g>
</svg>